<?xml version="1.0" encoding="utf-8"?>
<!-- Generator: Adobe Illustrator 18.0.0, SVG Export Plug-In . SVG Version: 6.00 Build 0)  -->
<!DOCTYPE svg PUBLIC "-//W3C//DTD SVG 1.1//EN" "http://www.w3.org/Graphics/SVG/1.1/DTD/svg11.dtd">
<svg version="1.1" id="Layer_1" xmlns="http://www.w3.org/2000/svg" xmlns:xlink="http://www.w3.org/1999/xlink" x="0px" y="0px"
	 viewBox="0 0 120.4 78.5" enable-background="new 0 0 120.4 78.5" xml:space="preserve">
<g>
	<circle fill="#ED1B2F" cx="74.4" cy="20.2" r="20.2"/>
	<path fill="#ED1B2F" d="M104.2,46.1c-9,0-16.2,7.3-16.2,16.2s7.3,16.2,16.2,16.2c9,0,16.2-7.3,16.2-16.2S113.2,46.1,104.2,46.1z
		 M104.2,74.6c-6.8,0-12.3-5.5-12.3-12.3s5.5-12.3,12.3-12.3c6.8,0,12.3,5.5,12.3,12.3C116.5,69.1,111,74.6,104.2,74.6z"/>
	<g>
		<path fill="#ED1B2F" d="M85.1,62.4c0-8.9,6.1-16.4,14.3-18.5c-2.6-1.3-5.6-2.4-8.8-3.5c0,0-4.3,5.4-15.6,5.4s-15.6-5.4-15.6-5.4
			c-25.8,9.3-23.9,35.8-23.9,35.8h39.6h15.9C87.3,72.7,85.1,67.8,85.1,62.4z"/>
	</g>
	<polygon fill="#ED1B2F" points="109.5,55.4 102.7,62.5 99.2,59 95.7,62.5 102.6,69.2 112.9,58.8 	"/>
</g>
<g>
	<path fill="none" d="M8.7,40.2c-1.8,0-3.4,1.5-3.4,3.4S6.9,47,8.7,47s3.3-1.5,3.4-3.4C12.1,41.8,10.6,40.2,8.7,40.2z"/>
	<path fill="none" d="M6.1,49.7c-0.8,0-1.4,0.6-1.4,1.4c0,0.8,0.6,1.4,1.4,1.4c0.8,0,1.4-0.6,1.4-1.4C7.5,50.3,6.9,49.7,6.1,49.7z"
		/>
	<path fill="none" d="M42,43.6c0,0.6,0.2,1.1,0.4,1.6c1.5-1.5,3.2-2.9,5.1-4.1c-0.6-0.5-1.3-0.8-2.1-0.8C43.5,40.2,42,41.8,42,43.6z
		"/>
	<path fill="none" d="M41.4,25c-0.5-0.9-0.7-1.2-1.8-1.4c-4.2-0.6-8-0.8-12.6-0.9c-4.6,0.1-8.4,0.3-12.6,0.9
		c-1.1,0.2-1.3,0.4-1.8,1.4c-1.6,3.2-2.7,6.1-4.1,9.6c6.4-0.1,30.7-0.1,37,0C44.2,31.1,43,28.2,41.4,25z"/>
	<path fill="none" d="M100.6,46.7c-6.8,0-12.3,5.5-12.3,12.3c0,6.8,5.5,12.3,12.3,12.3s12.3-5.5,12.3-12.3
		C112.9,52.2,107.4,46.7,100.6,46.7z M99,65.8l-6.9-6.7l3.5-3.5l3.5,3.5L106,52l3.3,3.3L99,65.8z"/>
	<path fill="#979797" d="M42,43.6c0-1.8,1.5-3.4,3.4-3.4c0.8,0,1.6,0.3,2.1,0.8c0.8-0.5,1.7-1,2.6-1.5c0-0.1-0.1-0.2-0.1-0.3
		c-0.1-0.7-0.3-1.3-0.5-1.9c0.4-0.8,0.8-1.8,1.1-2.5c0.3-0.5,0.4-0.5,1-0.6c1.4-0.2,2.4-0.7,2.6-1.8c0-0.2,0-0.4-0.1-0.5
		c-0.4-0.9-1.5-1.4-3.4-1.5c-2.3-0.1-3.1,2.3-1.6,3.5c0.1,0.6-0.2,1-0.6,1.3c-0.1-0.2-0.2-0.3-0.3-0.5c-0.3-0.6-0.5-1.2-0.8-1.8
		c-1.2-3.1-2.4-6.1-3.9-9.3c-0.4-1-1.4-1.9-2.5-2.2c-3.9-0.9-8.8-1-13.9-1.1c-5.1,0.1-10,0.2-13.9,1.1c-1.1,0.3-2.1,1.1-2.5,2.2
		c-1.4,3.2-2.7,6.1-3.9,9.3c-0.3,0.7-0.5,1.2-0.8,1.8c-0.1,0.2-0.2,0.3-0.3,0.5C5.2,34.9,5,34.5,5,33.9c1.5-1.2,0.7-3.6-1.6-3.5
		c-1.8,0.1-2.9,0.7-3.4,1.5C0,32,0,32.1,0,32.4c0.2,1.2,1.2,1.7,2.6,1.8c0.5,0.1,0.7,0,1,0.6c0.3,0.7,0.8,1.8,1.1,2.5
		c-0.2,0.7-0.4,1.2-0.5,1.9c-0.4,1.3-1.1,2.4-1.6,3.5c-0.8,1.4-1,2.7-1.1,4.3c-0.1,1.7,0,3.7,0.3,6C1.4,56.9,1.6,60.6,2,64
		c0.1,0.9,0.5,0.9,1.3,1.9h2.7c0.8,0,1.4,0,2-0.5c1-0.9,0.8-6.2,0.8-7.4L27.4,55l7.6,1.3c1.6-3.7,3.9-7.6,7.4-11.1
		C42.1,44.7,42,44.2,42,43.6z M6.1,52.5c-0.8,0-1.4-0.6-1.4-1.4c0-0.8,0.6-1.4,1.4-1.4c0.8,0,1.4,0.6,1.4,1.4
		C7.5,51.9,6.9,52.5,6.1,52.5z M8.7,47c-1.8,0-3.4-1.5-3.4-3.4s1.5-3.4,3.4-3.4s3.4,1.5,3.4,3.4C12,45.4,10.6,47,8.7,47z M8.5,34.5
		c1.4-3.5,2.5-6.4,4.1-9.6c0.5-0.9,0.7-1.2,1.8-1.4c4.2-0.6,8-0.8,12.6-0.9c4.6,0.1,8.4,0.3,12.6,0.9c1.1,0.2,1.3,0.4,1.8,1.4
		c1.6,3.2,2.8,6.1,4.1,9.6C39.2,34.5,14.9,34.5,8.5,34.5z"/>
</g>
</svg>
