<svg width="82" height="78" viewBox="0 0 82 78" fill="none" xmlns="http://www.w3.org/2000/svg">
<path fill-rule="evenodd" clip-rule="evenodd" d="M4.74778 27.5496H8.98255V16.1046C8.98255 15.2175 9.70138 14.4987 10.5885 14.4987H21.147V7.88717C21.147 7.00068 21.8664 6.28123 22.7529 6.28123H33.312V2.3286C33.312 1.44149 34.0308 0.722656 34.9173 0.722656H59.2468C60.1339 0.722656 60.8527 1.44149 60.8527 2.3286V18.4863H71.4118C72.2983 18.4863 73.0178 19.2051 73.0178 20.0923V27.5496H77.2525C78.5594 27.5496 79.7469 28.0832 80.6065 28.9428C81.466 29.8024 81.9997 30.9898 81.9997 32.2973V39.064C81.9997 40.3715 81.466 41.5589 80.6065 42.4185C80.0309 42.9941 79.3089 43.4232 78.5025 43.6441L69.1221 76.1246C68.9194 76.8247 68.2794 77.2802 67.585 77.2795L47.4064 77.282V77.2808C46.5218 77.2808 45.8049 76.5638 45.8049 75.6792C45.8049 74.7946 46.5218 74.0776 47.4064 74.0776V74.0733H66.3831L75.123 43.8124H47.4064V43.808C46.5218 43.808 45.8049 43.091 45.8049 42.2064C45.8049 41.3218 46.5218 40.6049 47.4064 40.6049V40.6005H77.2525C77.673 40.6005 78.0571 40.4272 78.3361 40.1482C78.6151 39.8691 78.7884 39.485 78.7884 39.0646V32.2973C78.7884 31.8763 78.6151 31.4928 78.3361 31.2138C78.0571 30.9348 77.673 30.7615 77.2525 30.7615C53.0839 30.7615 28.9158 30.7615 4.74778 30.7615C4.32674 30.7615 3.94324 30.9348 3.66421 31.2138C3.38519 31.4928 3.2119 31.8763 3.2119 32.2973V39.0646C3.2119 39.485 3.38519 39.8685 3.66421 40.1482C3.94324 40.4272 4.32674 40.6005 4.74778 40.6005H34.5939V40.6049C35.4785 40.6049 36.1955 41.3218 36.1955 42.2064C36.1955 43.091 35.4785 43.808 34.5939 43.808V43.8124H6.87674L15.6165 74.0733H34.5939V74.0776C35.4785 74.0776 36.1955 74.7946 36.1955 75.6792C36.1955 76.5638 35.4785 77.2808 34.5939 77.2808V77.2833L14.4154 77.2852C13.6346 77.2852 12.984 76.7284 12.8395 75.9908L3.4978 43.6441C2.69076 43.4232 1.9688 42.9941 1.39324 42.4191C0.533648 41.5589 0 40.3715 0 39.064V32.2973C0 30.9898 0.533648 29.8024 1.39324 28.9428C2.25283 28.0832 3.44024 27.5496 4.74778 27.5496ZM41.0002 40.6049C40.1155 40.6049 39.3986 41.3218 39.3986 42.2064C39.3986 43.0904 40.1155 43.808 41.0002 43.808C41.8848 43.808 42.6017 43.0904 42.6017 42.2064C42.6017 41.3218 41.8848 40.6049 41.0002 40.6049ZM41.0002 74.0776C40.1155 74.0776 39.3986 74.7946 39.3986 75.6792C39.3986 76.5638 40.1155 77.2808 41.0002 77.2808C41.8848 77.2808 42.6017 76.5638 42.6017 75.6792C42.6017 74.7946 41.8848 74.0776 41.0002 74.0776ZM60.8534 21.6982V27.5496H69.8059V21.6982H60.8534ZM12.1944 27.5496H21.147V17.7105H12.1944V27.5496ZM24.3589 27.5496H33.312V9.49312H24.3589V27.5496ZM36.5239 27.5496H57.6408V3.93455H36.5239V27.5496ZM21.147 48.6108V69.2742C21.147 70.1613 21.8664 70.8801 22.7529 70.8801C23.64 70.8801 24.3589 70.1613 24.3589 69.2742V48.6108C24.3589 47.7237 23.64 47.0049 22.7529 47.0049C21.8664 47.0049 21.147 47.7237 21.147 48.6108ZM57.6408 48.6108V69.2742C57.6408 70.1613 58.3603 70.8801 59.2468 70.8801C60.1339 70.8801 60.8527 70.1613 60.8527 69.2742V48.6108C60.8527 47.7237 60.1339 47.0049 59.2468 47.0049C58.3603 47.0049 57.6408 47.7237 57.6408 48.6108ZM45.4764 48.6108V69.2742C45.4764 70.1613 46.1952 70.8801 47.0824 70.8801C47.9695 70.8801 48.6883 70.1613 48.6883 69.2742V48.6108C48.6883 47.7237 47.9695 47.0049 47.0824 47.0049C46.1959 47.0049 45.4764 47.7237 45.4764 48.6108ZM33.312 48.6108V69.2742C33.312 70.1613 34.0308 70.8801 34.918 70.8801C35.8044 70.8801 36.5239 70.1613 36.5239 69.2742V48.6108C36.5239 47.7237 35.8044 47.0049 34.918 47.0049C34.0308 47.0049 33.312 47.7237 33.312 48.6108Z" fill="#76C741"/>
</svg>
