<svg width="24" height="24" viewBox="0 0 24 24" fill="none" xmlns="http://www.w3.org/2000/svg">
<path d="M8.7442 13.2407C8.7442 12.94 8.50034 12.6965 8.19945 12.6965H6.29848C5.99794 12.6965 5.75403 12.94 5.75403 13.2407V15.1414C5.75403 15.4424 5.99794 15.6861 6.29848 15.6861H8.19945C8.50034 15.6861 8.7442 15.4424 8.7442 15.1414V13.2407Z" fill="#C4C4C4"/>
<path d="M13.4949 13.2407C13.4949 12.94 13.251 12.6965 12.9507 12.6965H11.0495C10.749 12.6965 10.5051 12.94 10.5051 13.2407V15.1414C10.5051 15.4424 10.749 15.6861 11.0495 15.6861H12.9507C13.251 15.6861 13.4949 15.4424 13.4949 15.1414V13.2407Z" fill="#C4C4C4"/>
<path d="M18.2459 13.2407C18.2459 12.94 18.002 12.6965 17.7015 12.6965H15.8005C15.4997 12.6965 15.2558 12.94 15.2558 13.2407V15.1414C15.2558 15.4424 15.4997 15.6861 15.8005 15.6861H17.7015C18.002 15.6861 18.2459 15.4424 18.2459 15.1414V13.2407Z" fill="#C4C4C4"/>
<path d="M8.7442 17.9919C8.7442 17.6908 8.50034 17.4474 8.19945 17.4474H6.29848C5.99794 17.4474 5.75403 17.6908 5.75403 17.9919V19.8923C5.75403 20.1932 5.99794 20.4368 6.29848 20.4368H8.19945C8.50034 20.4368 8.7442 20.1931 8.7442 19.8923V17.9919Z" fill="#C4C4C4"/>
<path d="M13.4949 17.9919C13.4949 17.6908 13.251 17.4474 12.9507 17.4474H11.0495C10.749 17.4474 10.5051 17.6908 10.5051 17.9919V19.8923C10.5051 20.1932 10.749 20.4368 11.0495 20.4368H12.9507C13.251 20.4368 13.4949 20.1931 13.4949 19.8923V17.9919Z" fill="#C4C4C4"/>
<path d="M18.2459 17.9919C18.2459 17.6908 18.002 17.4474 17.7017 17.4474H15.8005C15.4997 17.4474 15.2558 17.6908 15.2558 17.9919V19.8923C15.2558 20.1932 15.4997 20.4368 15.8005 20.4368H17.7017C18.002 20.4368 18.2459 20.1931 18.2459 19.8923V17.9919Z" fill="#C4C4C4"/>
<path d="M21.6451 2.67234V5.57554C21.6451 6.88775 20.5806 7.94519 19.2686 7.94519H17.7694C16.4573 7.94519 15.3786 6.88775 15.3786 5.57554V2.66192H8.62138V5.57554C8.62138 6.88775 7.54279 7.94519 6.23087 7.94519H4.73139C3.41942 7.94519 2.35495 6.88775 2.35495 5.57554V2.67234C1.20827 2.7069 0.266022 3.65574 0.266022 4.82198V21.8361C0.266022 23.0243 1.22907 24.0001 2.41724 24.0001H21.5828C22.7692 24.0001 23.734 23.0222 23.734 21.8361V4.82198C23.734 3.65574 22.7918 2.7069 21.6451 2.67234ZM20.9488 20.7766C20.9488 21.2901 20.5324 21.7066 20.0188 21.7066H3.94027C3.4266 21.7066 3.01027 21.2901 3.01027 20.7766V11.9882C3.01027 11.4745 3.42655 11.0579 3.94027 11.0579H20.0187C20.5324 11.0579 20.9487 11.4745 20.9487 11.9882L20.9488 20.7766Z" fill="#C4C4C4"/>
<path d="M4.72613 6.38875H6.20904C6.65914 6.38875 7.02409 6.02434 7.02409 5.57423V0.814812C7.02409 0.364657 6.65914 0 6.20904 0H4.72613C4.27597 0 3.91107 0.364657 3.91107 0.814812V5.57423C3.91107 6.02434 4.27597 6.38875 4.72613 6.38875Z" fill="#C4C4C4"/>
<path d="M17.7503 6.38875H19.2332C19.683 6.38875 20.048 6.02434 20.048 5.57423V0.814812C20.048 0.364657 19.6831 0 19.2332 0H17.7503C17.3003 0 16.9353 0.364657 16.9353 0.814812V5.57423C16.9353 6.02434 17.3003 6.38875 17.7503 6.38875Z" fill="#C4C4C4"/>
</svg>
