<svg width="120" height="82" viewBox="0 0 120 82" fill="none" xmlns="http://www.w3.org/2000/svg">
<path d="M108.867 0.570312H11.1328C5.00156 0.577344 0.00703125 5.57188 0 11.7031V70.2969C0.00703125 76.4281 5.00156 81.4227 11.1328 81.4297H27.4945C28.4651 81.4297 29.2523 80.6398 29.2523 79.6719C29.2523 78.7016 28.4651 77.9141 27.4945 77.9141H11.1328C9.11016 77.9141 7.2 77.1172 5.75391 75.6758C4.31227 74.2297 3.51562 72.3195 3.51562 70.2969V36.8989H116.484V70.2969C116.484 72.3195 115.69 74.2297 114.246 75.6758C112.8 77.1172 110.89 77.9141 108.867 77.9141H34.5279C33.5576 77.9141 32.7701 78.7016 32.7701 79.6719C32.7701 80.6398 33.5576 81.4297 34.5279 81.4297H108.867C114.998 81.4227 119.993 76.4281 120 70.2969V11.7031C119.993 5.57188 114.998 0.577344 108.867 0.570312ZM116.484 12.2891H3.51562V11.7031C3.51562 9.68047 4.31227 7.77266 5.75391 6.32422C7.20234 4.88047 9.11016 4.08594 11.1328 4.08594H108.867C110.887 4.08594 112.798 4.88047 114.246 6.32422C115.69 7.77031 116.484 9.68047 116.484 11.7031V12.2891Z" fill="#76C741"/>
</svg>
