<svg width="38" height="38" viewBox="0 0 38 38" fill="none" xmlns="http://www.w3.org/2000/svg">
<path d="M25.3905 31.5323C23.6145 31.5323 22.2341 32.9903 22.2341 34.7662C22.2341 36.5421 23.6921 38.0001 25.3905 38.0001C27.0888 38.0001 28.5468 36.5421 28.5468 34.7662C28.5468 32.9903 27.0888 31.5323 25.3905 31.5323ZM25.3905 36.3793C24.4986 36.3793 23.8549 35.6503 23.8549 34.7585C23.8549 33.8666 24.5839 33.1377 25.3905 33.1377C26.197 33.1377 26.926 33.8666 26.926 34.7585C26.926 35.6503 26.197 36.3793 25.3905 36.3793Z" fill="white"/>
<path d="M8.16609 31.5323C6.39017 31.5323 5.00977 32.9903 5.00977 34.7662C5.00977 36.5421 6.46773 38.0001 8.16609 38.0001C9.94201 38.0001 11.3224 36.5421 11.3224 34.7662C11.3224 32.9903 9.86446 31.5323 8.16609 31.5323ZM8.16609 36.3793C7.27426 36.3793 6.63058 35.6503 6.63058 34.7585C6.63058 33.8666 7.35956 33.1377 8.16609 33.1377C9.05793 33.1377 9.7016 33.8666 9.7016 34.7585C9.7016 35.6581 8.98038 36.3793 8.16609 36.3793Z" fill="white"/>
<path d="M32.9902 0L31.7339 4.93224H0L5.8551 22.2804C3.89306 22.5673 2.42735 24.2269 2.42735 26.3596C2.42735 28.7016 4.20327 30.5629 6.46775 30.5629H28.4612V29.0273H6.46775C5.0951 29.0273 4.04041 27.8951 4.04041 26.4371C4.04041 24.9792 5.17265 23.8469 6.46775 23.8469H28.4612H28.5388L34.2775 1.61306H37.5114V0H32.9902ZM27.329 22.2339H7.52245L2.26449 6.54531H31.2918L27.329 22.2339Z" fill="white"/>
<path d="M11.8886 10.3455H10.2678V19.481H11.8886V10.3455Z" fill="white"/>
<path d="M17.635 10.3455H16.0142V19.481H17.635V10.3455Z" fill="white"/>
<path d="M23.374 10.3455H21.7532V19.481H23.374V10.3455Z" fill="white"/>
</svg>
