<svg width="36" height="36" viewBox="0 0 36 36" fill="none" xmlns="http://www.w3.org/2000/svg">
<path d="M24.3675 29.8727C22.6632 29.8727 21.3384 31.254 21.3384 32.9364C21.3384 34.6189 22.7376 36.0001 24.3675 36.0001C25.9975 36.0001 27.3967 34.6189 27.3967 32.9364C27.3967 31.254 25.9975 29.8727 24.3675 29.8727ZM24.3675 34.4646C23.5116 34.4646 22.8939 33.774 22.8939 32.9291C22.8939 32.0842 23.5935 31.3936 24.3675 31.3936C25.1416 31.3936 25.8412 32.0842 25.8412 32.9291C25.8412 33.774 25.1416 34.4646 24.3675 34.4646Z" fill="#76C741"/>
<path d="M7.83701 29.8727C6.13265 29.8727 4.80786 31.254 4.80786 32.9364C4.80786 34.6189 6.20708 36.0001 7.83701 36.0001C9.54137 36.0001 10.8662 34.6189 10.8662 32.9364C10.8662 31.254 9.46695 29.8727 7.83701 29.8727ZM7.83701 34.4646C6.98111 34.4646 6.36337 33.774 6.36337 32.9291C6.36337 32.0842 7.06298 31.3936 7.83701 31.3936C8.69291 31.3936 9.31065 32.0842 9.31065 32.9291C9.31065 33.7813 8.61849 34.4646 7.83701 34.4646Z" fill="#76C741"/>
<path d="M31.6609 0L30.4552 4.67265H0L5.61919 21.1078C3.7362 21.3796 2.32954 22.9518 2.32954 24.9722C2.32954 27.191 4.03391 28.9543 6.20715 28.9543H27.3145V27.4996H6.20715C4.88981 27.4996 3.87761 26.4269 3.87761 25.0457C3.87761 23.6645 4.96423 22.5918 6.20715 22.5918H27.3145H27.3889L32.8964 1.52816H36V0H31.6609ZM26.2278 21.0637H7.21935L2.17325 6.20082H30.031L26.2278 21.0637Z" fill="#76C741"/>
<path d="M11.4095 9.8009H9.854V18.4556H11.4095V9.8009Z" fill="#76C741"/>
<path d="M16.9244 9.8009H15.3689V18.4556H16.9244V9.8009Z" fill="#76C741"/>
<path d="M22.4322 9.8009H20.8767V18.4556H22.4322V9.8009Z" fill="#76C741"/>
</svg>
