<svg width="489" height="50" viewBox="0 0 489 50" fill="none" xmlns="http://www.w3.org/2000/svg">
<path d="M244.269 26.9957H226.709V50H221V12.9899C221 11.1998 221.337 9.50654 222.012 7.91003C222.686 6.31351 223.602 4.9347 224.758 3.7736C225.962 2.6125 227.335 1.69329 228.877 1.01598C230.418 0.33867 232.056 1.52588e-05 233.791 1.52588e-05H237.187C238.922 1.52588e-05 240.56 0.33867 242.101 1.01598C243.643 1.69329 244.992 2.6125 246.148 3.7736C247.304 4.9347 248.22 6.31351 248.894 7.91003C249.569 9.50654 249.906 11.1998 249.906 12.9899V50H244.269V26.9957ZM244.269 12.9899C244.269 12.0223 244.076 11.0789 243.691 10.1597C243.354 9.24046 242.872 8.4422 242.246 7.76489C241.62 7.0392 240.873 6.45865 240.006 6.02324C239.138 5.58782 238.199 5.37012 237.187 5.37012H233.791C232.731 5.37012 231.767 5.58782 230.9 6.02324C230.033 6.45865 229.286 7.0392 228.66 7.76489C228.034 8.4422 227.552 9.24046 227.215 10.1597C226.878 11.0789 226.709 12.0223 226.709 12.9899V21.6981H244.269V12.9899Z" fill="#67AB3B"/>
<path d="M270.574 50C268.743 50 267.008 49.6614 265.37 48.9841C263.732 48.3067 262.287 47.3875 261.035 46.2264C259.83 45.0653 258.867 43.6865 258.144 42.09C257.47 40.4935 257.132 38.776 257.132 36.9376V1.52588e-05H263.13V36.9376C263.13 37.9536 263.323 38.9212 263.708 39.8404C264.094 40.7596 264.6 41.582 265.226 42.3077C265.9 42.985 266.695 43.5414 267.611 43.9768C268.526 44.3638 269.514 44.5573 270.574 44.5573H277.872V50H270.574Z" fill="#67AB3B"/>
<path d="M295.626 50C293.795 50 292.061 49.6614 290.423 48.9841C288.785 48.3067 287.34 47.3875 286.087 46.2264C284.883 45.0653 283.919 43.6865 283.197 42.09C282.522 40.4935 282.185 38.776 282.185 36.9376V1.52588e-05H288.183V36.9376C288.183 37.9536 288.376 38.9212 288.761 39.8404C289.146 40.7596 289.652 41.582 290.279 42.3077C290.953 42.985 291.748 43.5414 292.663 43.9768C293.579 44.3638 294.566 44.5573 295.626 44.5573H302.925V50H295.626Z" fill="#67AB3B"/>
<path d="M338.589 50C336.854 50 335.216 49.6614 333.675 48.9841C332.133 48.3067 330.76 47.3875 329.556 46.2264C328.399 45.0653 327.484 43.7107 326.809 42.1626C326.135 40.5661 325.798 38.8486 325.798 37.0102V12.9899C325.798 11.1998 326.135 9.50654 326.809 7.91003C327.484 6.31351 328.399 4.9347 329.556 3.7736C330.76 2.6125 332.133 1.69329 333.675 1.01598C335.216 0.33867 336.854 1.52588e-05 338.589 1.52588e-05H350.295V5.37012H338.589C337.529 5.37012 336.565 5.58782 335.698 6.02324C334.831 6.45865 334.084 7.0392 333.458 7.76489C332.832 8.4422 332.35 9.24046 332.013 10.1597C331.675 11.0789 331.507 12.0223 331.507 12.9899V37.0102C331.507 38.0261 331.675 38.9937 332.013 39.9129C332.35 40.7838 332.832 41.582 333.458 42.3077C334.084 42.985 334.831 43.5414 335.698 43.9768C336.565 44.3638 337.529 44.5573 338.589 44.5573H341.985C342.997 44.5573 343.936 44.3638 344.803 43.9768C345.671 43.5414 346.417 42.985 347.044 42.3077C347.67 41.582 348.152 40.7838 348.489 39.9129C348.874 38.9937 349.067 38.0261 349.067 37.0102V27.0682H342.057V21.7707H354.704V37.0102C354.704 38.8486 354.366 40.5661 353.692 42.1626C353.017 43.7107 352.102 45.0653 350.946 46.2264C349.79 47.3875 348.441 48.3067 346.899 48.9841C345.357 49.6614 343.719 50 341.985 50H338.589Z" fill="#67AB3B"/>
<path d="M385.272 34.9057C385.272 33.9381 385.079 32.9947 384.693 32.0755C384.356 31.1079 383.874 30.2613 383.248 29.5356C382.622 28.8099 381.875 28.2293 381.008 27.7939C380.141 27.3585 379.177 27.1408 378.117 27.1408H367.567V50H361.93V0.0725833H378.117C379.852 0.0725833 381.49 0.411238 383.031 1.08855C384.621 1.76586 385.994 2.68506 387.15 3.84617C388.307 5.00727 389.222 6.38608 389.896 7.9826C390.571 9.57911 390.908 11.2724 390.908 13.0624V14.2235C390.908 15.9652 390.523 17.6826 389.752 19.3759C388.981 21.0208 387.753 22.7383 386.066 24.5283C387.753 26.3184 388.981 28.06 389.752 29.7533C390.523 31.3982 390.908 33.1156 390.908 34.9057V50H385.272V34.9057ZM385.272 13.0624C385.272 12.0465 385.079 11.0789 384.693 10.1597C384.356 9.24046 383.874 8.4422 383.248 7.76489C382.622 7.0392 381.875 6.48284 381.008 6.09581C380.141 5.66039 379.177 5.44269 378.117 5.44269H367.567V21.7707H378.117C379.129 21.7707 380.068 21.5772 380.936 21.1901C381.851 20.7547 382.622 20.1984 383.248 19.5211C383.874 18.7954 384.356 17.9729 384.693 17.0537C385.079 16.1345 385.272 15.1911 385.272 14.2235V13.0624Z" fill="#67AB3B"/>
<path d="M411.141 50C409.358 50 407.672 49.6614 406.082 48.9841C404.54 48.3067 403.167 47.3875 401.963 46.2264C400.807 45.0653 399.867 43.7107 399.145 42.1626C398.47 40.5661 398.133 38.8486 398.133 37.0102V12.9899C398.133 11.1998 398.47 9.50654 399.145 7.91003C399.867 6.31351 400.807 4.9347 401.963 3.7736C403.167 2.6125 404.54 1.69329 406.082 1.01598C407.672 0.33867 409.358 1.52588e-05 411.141 1.52588e-05H422.992V5.37012H411.141C410.081 5.37012 409.117 5.58782 408.25 6.02324C407.383 6.45865 406.636 7.0392 406.01 7.76489C405.383 8.4422 404.902 9.24046 404.564 10.1597C404.227 11.0789 404.059 12.0223 404.059 12.9899V21.6981H418.222V26.9957H404.059V37.0102C404.059 38.0261 404.227 38.9937 404.564 39.9129C404.902 40.7838 405.383 41.582 406.01 42.3077C406.636 42.985 407.383 43.5414 408.25 43.9768C409.117 44.3638 410.081 44.5573 411.141 44.5573H422.992V50H411.141Z" fill="#67AB3B"/>
<path d="M442.121 50C440.339 50 438.652 49.6614 437.063 48.9841C435.521 48.3067 434.148 47.3875 432.944 46.2264C431.787 45.0653 430.848 43.7107 430.125 42.1626C429.451 40.5661 429.114 38.8486 429.114 37.0102V12.9899C429.114 11.1998 429.451 9.50654 430.125 7.91003C430.848 6.31351 431.787 4.9347 432.944 3.7736C434.148 2.6125 435.521 1.69329 437.063 1.01598C438.652 0.33867 440.339 1.52588e-05 442.121 1.52588e-05H453.973V5.37012H442.121C441.061 5.37012 440.098 5.58782 439.231 6.02324C438.363 6.45865 437.617 7.0392 436.99 7.76489C436.364 8.4422 435.882 9.24046 435.545 10.1597C435.208 11.0789 435.039 12.0223 435.039 12.9899V21.6981H449.203V26.9957H435.039V37.0102C435.039 38.0261 435.208 38.9937 435.545 39.9129C435.882 40.7838 436.364 41.582 436.99 42.3077C437.617 42.985 438.363 43.5414 439.231 43.9768C440.098 44.3638 441.061 44.5573 442.121 44.5573H453.973V50H442.121Z" fill="#67AB3B"/>
<path d="M483.363 37.8084L466.02 8.99856V50H460.094V1.52588e-05H466.598L483.363 30.2613V1.52588e-05H489V50H483.363V37.8084Z" fill="#67AB3B"/>
<path d="M23.2046 26.9957H5.69305V50H0V12.9899C0 11.1998 0.336299 9.50654 1.0089 7.91003C1.68149 6.31351 2.5943 4.9347 3.74733 3.7736C4.94839 2.6125 6.31761 1.69329 7.85497 1.01598C9.39234 0.33867 11.0258 1.52588e-05 12.7553 1.52588e-05H16.1423C17.8719 1.52588e-05 19.5053 0.33867 21.0427 1.01598C22.58 1.69329 23.9252 2.6125 25.0783 3.7736C26.2313 4.9347 27.1441 6.31351 27.8167 7.91003C28.4893 9.50654 28.8256 11.1998 28.8256 12.9899V50H23.2046V26.9957ZM23.2046 12.9899C23.2046 12.0223 23.0124 11.0789 22.6281 10.1597C22.2918 9.24046 21.8114 8.4422 21.1868 7.76489C20.5623 7.0392 19.8176 6.45865 18.9528 6.02324C18.0881 5.58782 17.1512 5.37012 16.1423 5.37012H12.7553C11.6984 5.37012 10.7375 5.58782 9.87276 6.02324C9.008 6.45865 8.26333 7.0392 7.63878 7.76489C7.01423 8.4422 6.5338 9.24046 6.1975 10.1597C5.8612 11.0789 5.69305 12.0223 5.69305 12.9899V21.6981H23.2046V12.9899Z" fill="#67AB3B"/>
<path d="M49.4359 50C47.6103 50 45.8807 49.6614 44.2473 48.9841C42.6138 48.3067 41.1725 47.3875 39.9234 46.2264C38.7224 45.0653 37.7615 43.6865 37.0409 42.09C36.3683 40.4935 36.032 38.776 36.032 36.9376V1.52588e-05H42.0133V36.9376C42.0133 37.9536 42.2055 38.9212 42.5898 39.8404C42.9741 40.7596 43.4786 41.582 44.1031 42.3077C44.7757 42.985 45.5684 43.5414 46.4813 43.9768C47.3941 44.3638 48.3789 44.5573 49.4359 44.5573H56.7143V50H49.4359Z" fill="#67AB3B"/>
<path d="M74.419 50C72.5934 50 70.8638 49.6614 69.2304 48.9841C67.5969 48.3067 66.1557 47.3875 64.9065 46.2264C63.7055 45.0653 62.7446 43.6865 62.024 42.09C61.3514 40.4935 61.0151 38.776 61.0151 36.9376V1.52588e-05H66.9964V36.9376C66.9964 37.9536 67.1886 38.9212 67.5729 39.8404C67.9573 40.7596 68.4617 41.582 69.0863 42.3077C69.7589 42.985 70.5516 43.5414 71.4644 43.9768C72.3772 44.3638 73.3621 44.5573 74.419 44.5573H81.6974V50H74.419Z" fill="#67AB3B"/>
<path d="M104.507 1.52588e-05H110.128V50H104.507V1.52588e-05Z" fill="#67AB3B"/>
<path d="M140.52 37.8084L123.224 8.99856V50H117.315V1.52588e-05H123.801L140.52 30.2613V1.52588e-05H146.141V50H140.52V37.8084Z" fill="#67AB3B"/>
<path d="M176.552 37.8084L159.256 8.99856V50H153.347V1.52588e-05H159.833L176.552 30.2613V1.52588e-05H182.173V50H176.552V37.8084Z" fill="#67AB3B"/>
<path d="M195 50H189.379V43.2511H195V50Z" fill="#67AB3B"/>
</svg>
