<svg width="628" height="159" viewBox="0 0 628 159" fill="none" xmlns="http://www.w3.org/2000/svg">
    <path d="M102.921 13.1303C98.6451 16.9735 95.0443 21.721 92.3437 26.9206C91.2185 29.1813 90.3183 31.442 90.0932 33.9287C89.8682 35.9633 90.0932 37.7719 90.3183 39.8065C90.5433 42.7454 90.9934 45.9104 91.2185 48.8493C91.2185 49.0754 91.2185 49.5275 91.4435 49.7536C91.8936 50.2057 92.7938 49.9796 93.4689 49.5275C98.6451 46.3625 102.696 41.389 104.721 35.7372C106.747 30.0855 107.422 23.7556 106.747 17.8778C106.522 15.6171 105.847 13.1303 103.821 12L102.921 13.1303Z" fill="#D2EC49"/>
    <path d="M66.9969 15.3277C57.4064 9.52072 37.1103 9.52074 27.7428 15.5511C21.7209 19.5713 12.5764 28.9518 9.00787 35.2055C5.88538 40.5658 11.0152 41.0125 11.0152 42.3526C15.0298 45.2561 29.9732 43.916 37.7794 41.4592C44.9165 39.2257 44.0244 38.779 49.6002 34.0888C55.1761 29.1751 67.22 22.6981 66.9969 15.3277Z" fill="#D2EC49"/>
    <path d="M124.213 125.538L124.663 88.8035C124.888 78.052 124.888 65.7326 124.888 52.2933C124.888 47.3656 124.438 39.75 123.539 29.2226C122.865 18.0231 122.416 11.0795 122.416 8.61559C122.416 6.5997 123.314 4.8078 124.888 3.23988C126.685 1.67197 128.483 1 130.506 1C135.9 1 141.293 2.11996 146.237 4.58383C151.181 7.0477 155.676 10.4075 159.721 14.6633C168.036 24.0708 173.43 34.5983 176.127 45.7977C177.475 51.6214 178.149 57.2211 178.149 62.8208C178.149 64.8367 178.149 66.6286 177.925 68.4205L177.7 74.6922V87.4595C177.7 97.315 177.475 105.155 176.801 110.978C175.902 118.818 174.104 125.538 171.407 131.585C168.261 138.081 163.766 143.905 157.923 149.056C155.227 151.296 151.631 153.76 147.136 156H130.281C126.236 156 124.213 145.697 124.213 125.538ZM149.159 141.665C151.856 140.097 154.103 137.857 155.901 134.945C157.474 132.481 158.822 129.345 160.171 125.538C161.519 121.73 162.418 118.146 163.092 114.562C164.441 107.618 165.34 100.451 165.564 93.2832C165.789 91.4913 165.789 88.8035 165.789 85.2197C165.789 38.4061 156.8 13.9913 138.596 11.9754C137.473 18.9191 137.023 26.9827 137.023 36.1662C137.023 46.0217 137.697 63.0448 138.821 87.2355C139.945 108.738 140.394 125.986 140.394 138.529V144.129C143.54 144.129 146.462 143.233 149.159 141.665Z" fill="#67AB3B"/>
    <path d="M208.097 155.989C206.514 154.648 205.609 152.86 205.383 150.848V144.814V140.12C205.157 138.779 205.157 137.215 205.157 135.203C205.157 131.851 204.931 126.934 204.478 120.453L204.026 105.702C204.026 98.1032 204.252 86.9284 204.704 71.9541C205.383 58.5444 205.609 47.1461 205.609 38.2063C205.609 35.9713 205.383 32.8424 204.931 28.3725C204.478 23.9026 204.252 20.5501 204.252 18.5387C204.252 7.58738 207.645 2 214.205 2C219.407 2 225.288 3.11745 232.074 4.90542C238.859 6.91688 242.252 9.37536 242.252 12.0573C242.252 13.6218 241.574 14.9627 240.217 16.3037C238.859 17.6447 237.276 18.7622 235.467 19.4326C228.907 17.1977 223.026 15.6332 217.597 14.7393C217.824 16.9742 217.824 20.3266 217.824 24.7965C217.824 31.0544 217.824 36.6418 217.597 41.5587C217.145 48.9341 216.919 54.5215 216.919 58.3209L217.597 62.1203L221.443 61.8968C222.8 61.6733 224.157 61.6733 226.193 61.6733C233.657 61.6733 237.502 63.9083 237.502 68.1548C237.502 69.9427 236.824 71.2837 235.467 72.4012C234.109 73.5186 232.3 74.1891 230.038 74.1891C227.324 74.1891 225.062 73.9656 223.478 73.7421H217.597C217.824 77.7651 218.05 83.576 218.05 91.3983C218.05 99.2206 218.05 106.149 217.824 112.183C217.371 121.57 217.145 128.722 217.145 133.192C217.145 141.908 217.371 146.155 217.597 146.155L225.288 145.931C228.002 145.708 231.169 145.708 235.014 145.708C240.895 145.708 243.836 147.496 243.836 151.295C243.836 153.53 242.931 155.095 240.895 156.212C238.859 157.33 236.598 158 233.657 158H213.752C211.49 158 209.681 157.33 208.097 155.989Z" fill="#67AB3B"/>
    <path d="M286.899 153.873C283.296 152.309 280.368 150.074 277.891 147.392C275.864 145.157 274.062 142.028 272.261 137.781C270.459 133.535 269.333 129.512 268.432 125.713C267.757 122.807 267.081 118.561 266.631 112.973C266.18 107.386 265.955 102.692 265.73 98.6692V85.2592V76.0957C265.73 67.1558 265.955 59.7803 266.18 53.9693C266.406 47.0408 267.532 39.6654 269.108 31.8429C270.459 24.9144 272.936 18.8799 276.314 13.516C279.692 8.37548 284.196 4.57601 290.052 2.56452C292.754 1.44703 296.132 1 299.961 1C306.717 1 310.095 3.01151 310.095 6.81099C310.095 8.59898 309.419 10.1635 307.843 11.281C306.266 12.3985 304.69 13.069 302.663 13.069C301.762 13.069 300.861 13.069 300.186 12.8455C299.51 12.622 298.835 12.622 297.934 12.622C295.231 12.622 292.979 13.963 290.953 16.8685C288.926 19.5504 287.124 23.5735 285.773 28.4904C283.296 38.1009 281.494 48.6054 280.593 59.7803C279.918 70.2848 279.692 78.1072 279.692 83.2477C279.692 88.6117 279.918 95.7636 280.368 104.704C281.044 113.197 282.395 120.572 284.422 127.053C285.548 130.853 286.899 133.758 288.25 135.993C289.827 138.228 291.628 140.24 293.88 141.581C296.583 143.369 299.285 144.039 301.987 144.039C309.419 144.039 313.247 131.747 313.247 106.939V96.2106C312.121 95.7636 310.32 95.5402 307.843 95.5402H305.816H303.339C297.934 95.5402 295.231 93.7521 295.231 90.1761C295.231 87.9411 295.907 86.3767 297.483 85.2592C299.06 84.1417 300.861 83.4712 303.113 83.4712V83.6947H306.491C320.454 83.6947 327.435 86.1532 327.435 90.8467C327.435 92.1877 326.985 95.0931 326.309 99.1161C325.408 102.916 324.958 105.598 324.958 107.386C324.958 110.068 325.183 114.091 325.634 119.678L326.084 131.971C326.084 139.346 323.382 145.157 318.202 149.403C313.022 153.65 306.717 155.885 299.06 155.885C294.331 156.332 290.502 155.438 286.899 153.873Z" fill="#67AB3B"/>
    <path d="M380.223 147.579C376.889 139.517 374.667 131.231 373.111 122.721L371.555 114.883C367.111 92.7127 364.222 80.1718 363.11 77.0366H360.444C360.444 81.5155 360.443 85.5465 360.221 89.3535V102.118C360.221 122.945 361.777 139.069 364.666 150.714L362.221 156.985H355.776L352.887 153.401L353.11 137.949C353.11 124.065 352.443 102.79 351.109 74.5733C349.776 44.3409 349.332 23.2901 349.332 11.1972C349.332 3.80704 351.776 0 356.888 0C365.111 0 372 2.23946 377.334 6.49439C382.667 10.7493 385.334 16.7958 385.334 24.6338V40.9817C385.334 43.2212 384.89 45.9084 384.223 49.0436C383.556 51.9549 382.667 54.4183 381.778 56.4338L377.334 64.7197L373.556 71.662L374.667 77.2606L378 93.8324C380.223 105.701 382.223 115.331 384.223 122.945C386.223 130.335 388.668 137.054 391.557 143.1L392.89 145.787C394.446 148.923 395.113 151.386 395.113 153.177C395.113 154.745 394.668 156.089 393.779 157.208C392.89 158.328 391.557 159 390.001 159C386.001 158.776 382.89 154.969 380.223 147.579ZM369.778 51.507C372.222 43.893 373.333 36.7268 373.333 30.2324C373.333 25.3056 372.667 20.6028 371.555 16.3479C370.889 13.8845 369.555 11.869 367.777 10.7493C366 9.40564 363.777 8.73382 361.11 8.73382L360.666 9.85354L360.221 11.869L360.666 39.1901C360.888 47.2521 361.11 55.9859 361.11 65.3916C364.444 64.0479 367.333 59.3451 369.778 51.507Z" fill="#67AB3B"/>
    <path d="M422.075 155.989C420.492 154.648 419.587 152.86 419.361 150.848V144.814V140.12C419.134 138.779 419.134 137.215 419.134 135.203C419.134 131.851 418.908 126.934 418.456 120.453L418.003 105.702C418.003 98.1032 418.23 86.9284 418.682 71.9541C419.361 58.5444 419.587 47.1461 419.587 38.2063C419.587 35.9713 419.361 32.8424 418.908 28.3725C418.456 23.9026 418.23 20.5501 418.23 18.5387C418.23 7.58738 421.622 2 428.182 2C433.384 2 439.265 3.11745 446.051 4.90542C452.837 6.91688 456.23 9.37536 456.23 12.0573C456.23 13.6218 455.551 14.9627 454.194 16.3037C452.837 17.6447 451.254 18.7622 449.444 19.4326C442.885 17.1977 437.004 15.6332 431.575 14.7393C431.801 16.9742 431.801 20.3266 431.801 24.7965C431.801 31.0544 431.801 36.6418 431.575 41.5587C431.123 48.9341 430.896 54.5215 430.896 58.3209L431.575 62.1203L435.42 61.8968C436.777 61.6733 438.135 61.6733 440.17 61.6733C447.635 61.6733 451.48 63.9083 451.48 68.1548C451.48 69.9427 450.801 71.2837 449.444 72.4012C448.087 73.5186 446.277 74.1891 444.016 74.1891C441.301 74.1891 439.039 73.9656 437.456 73.7421H431.575C431.801 77.7651 432.027 83.576 432.027 91.3983C432.027 99.2206 432.027 106.149 431.801 112.183C431.349 121.57 431.123 128.722 431.123 133.192C431.123 141.908 431.349 146.155 431.575 146.155L439.265 145.931C441.98 145.708 445.146 145.708 448.992 145.708C454.873 145.708 457.813 147.496 457.813 151.295C457.813 153.53 456.909 155.095 454.873 156.212C452.837 157.33 450.575 158 447.635 158H427.73C425.468 158 423.658 157.33 422.075 155.989Z" fill="#67AB3B"/>
    <path d="M487.761 155.989C486.178 154.648 485.273 152.86 485.047 150.848V144.814V140.12C484.821 138.779 484.821 137.215 484.821 135.203C484.821 131.851 484.595 126.934 484.142 120.453L483.69 105.702C483.69 98.1032 483.916 86.9284 484.369 71.9541C485.047 58.5444 485.273 47.1461 485.273 38.2063C485.273 35.9713 485.047 32.8424 484.595 28.3725C484.142 23.9026 483.916 20.5501 483.916 18.5387C483.916 7.58738 487.309 2 493.869 2C499.071 2 504.952 3.11745 511.738 4.90542C518.524 6.91688 521.916 9.37536 521.916 12.0573C521.916 13.6218 521.238 14.9627 519.881 16.3037C518.524 17.6447 516.94 18.7622 515.131 19.4326C508.571 17.1977 502.69 15.6332 497.261 14.7393C497.488 16.9742 497.488 20.3266 497.488 24.7965C497.488 31.0544 497.488 36.6418 497.261 41.5587C496.809 48.9341 496.583 54.5215 496.583 58.3209L497.261 62.1203L501.107 61.8968C502.464 61.6733 503.821 61.6733 505.857 61.6733C513.321 61.6733 517.166 63.9083 517.166 68.1548C517.166 69.9427 516.488 71.2837 515.131 72.4012C513.774 73.5186 511.964 74.1891 509.702 74.1891C506.988 74.1891 504.726 73.9656 503.142 73.7421H497.261C497.488 77.7651 497.714 83.576 497.714 91.3983C497.714 99.2206 497.714 106.149 497.488 112.183C497.035 121.57 496.809 128.722 496.809 133.192C496.809 141.908 497.035 146.155 497.261 146.155L504.952 145.931C507.666 145.708 510.833 145.708 514.678 145.708C520.559 145.708 523.5 147.496 523.5 151.295C523.5 153.53 522.595 155.095 520.559 156.212C518.524 157.33 516.262 158 513.321 158H493.416C491.381 158 489.571 157.33 487.761 155.989Z" fill="#67AB3B"/>
    <path d="M607.402 154.208C606.516 153.312 605.852 151.52 605.409 149.056L604.08 144.577V144.129V143.457C604.08 138.305 598.764 120.834 588.354 91.2673C577.944 61.4769 569.528 39.526 563.769 25.4148V142.337L564.655 143.905C564.877 144.129 565.098 144.801 565.541 145.473C565.984 146.144 566.206 147.04 566.206 147.712C566.206 149.728 565.541 151.52 564.212 152.864C562.883 154.208 561.112 154.88 559.118 154.88C554.246 154.88 551.809 150.176 551.809 140.769L551.588 101.123C551.366 89.2514 551.366 75.8122 551.366 61.2529C551.366 56.3252 551.588 49.1575 552.031 39.75C552.474 29.8945 552.695 22.7269 552.695 18.2471C552.695 11.0795 555.353 5.25578 560.89 1V2.34391C561.776 2.11992 562.44 1.89594 562.662 1.89594C566.206 1.89594 570.635 8.16762 575.951 20.487C580.159 30.3425 584.146 40.8699 587.468 51.8454C591.012 62.8208 595.442 78.5 601.2 98.6589L603.415 106.947C606.959 119.49 609.617 128.449 611.389 133.825C614.49 100.451 616.04 61.2529 616.04 15.7832V12.8714C615.818 11.9754 615.818 10.8555 615.818 9.95954C615.818 5.25578 617.59 3.01588 621.356 3.01588C623.57 3.01588 625.121 3.91185 626.228 5.47977C627.336 7.27168 628 9.28756 628 11.9754V29.4465C627.779 53.1893 626.671 79.172 625.342 106.947C623.792 134.721 622.02 150.624 619.805 154.208C615.375 155.552 612.718 156 611.61 156C609.617 155.552 608.288 155.104 607.402 154.208Z" fill="#67AB3B"/>
    <path d="M129.376 2.01818C111.055 2.67893 93.1812 6.64341 75.3073 9.94715C67.9343 11.4889 69.9452 18.3167 77.0947 16.7749C94.0749 13.4712 110.608 9.94714 128.035 9.2864C134.514 9.2864 137.642 1.57768 129.376 2.01818Z" fill="#67AB3B"/>
    <path d="M78.0427 10.9709C46.571 3.36241 12.218 18.1319 0.0281984 49.2373C-0.636698 50.8038 10.6665 49.9086 11.7747 46.9995C21.0833 23.5026 42.3599 9.18069 68.2909 15.4465C70.9505 15.8941 81.1456 11.6423 78.0427 10.9709Z" fill="#67AB3B"/>
    <path d="M3.64071 52.7816C34.3213 55.2486 57.6652 36.4097 79.2305 16.6738C84.5663 11.7398 73.0055 10.6185 69.4483 13.7583C52.1071 29.6816 32.9873 46.7263 8.08717 44.9321C2.5291 44.4836 -4.36292 52.1088 3.64071 52.7816Z" fill="#67AB3B"/>
    <path d="M105.04 6.35774C86.8925 12.3567 81.5155 29.9092 80.6193 47.4617C80.3953 51.461 88.4608 50.3502 88.6849 46.7952C89.357 33.9085 91.8215 16.5782 106.384 11.6901C111.313 9.91267 109.969 4.58027 105.04 6.35774Z" fill="#67AB3B"/>
    <path d="M87.7471 49.196C103.856 40.6997 108.554 27.0609 111.463 9.84466C111.687 8.05596 103.856 9.3975 103.632 11.1862C101.171 26.1665 97.8152 40.4761 83.2724 48.0781C78.3502 50.5376 85.7335 50.314 87.7471 49.196Z" fill="#67AB3B"/>
</svg>
