<svg width="190" height="48" viewBox="0 0 190 48" fill="none" xmlns="http://www.w3.org/2000/svg">
<path d="M31.5301 3.04231C30.2483 4.19161 29.1689 5.61133 28.3593 7.16626C28.022 7.84232 27.7521 8.51838 27.6847 9.26204C27.6172 9.87049 27.6847 10.4113 27.7521 11.0198C27.8196 11.8987 27.9545 12.8451 28.022 13.724C28.022 13.7916 28.022 13.9268 28.0895 13.9944C28.2244 14.1296 28.4942 14.062 28.6966 13.9268C30.2483 12.9803 31.4626 11.493 32.0697 9.80288C32.6769 8.11274 32.8793 6.21978 32.6769 4.46204C32.6095 3.78598 32.4071 3.04231 31.7999 2.70428L31.5301 3.04231Z" fill="#D2EC49"/>
<path d="M20.9389 3.7183C18.038 1.96056 11.8989 1.96056 9.06547 3.78591C7.24398 5.00281 4.47801 7.84224 3.39861 9.7352C2.45413 11.3577 4.00577 11.493 4.00577 11.8986C5.2201 12.7775 9.74009 12.3718 12.1013 11.6282C14.2601 10.9521 13.9902 10.8169 15.6768 9.39717C17.3634 7.90985 21.0063 5.94929 20.9389 3.7183Z" fill="#D2EC49"/>
<path d="M37.6696 37.9944L37.8045 26.9071C37.872 23.662 37.872 19.9437 37.872 15.8873C37.872 14.4 37.737 12.1014 37.4672 8.92395C37.2648 5.54367 37.1299 3.44789 37.1299 2.70423C37.1299 2.09578 37.3997 1.55494 37.872 1.0817C38.4117 0.608457 38.9514 0.40564 39.5585 0.40564C41.1776 0.40564 42.7967 0.743672 44.2809 1.48733C45.7651 2.231 47.1143 3.24508 48.3287 4.52959C50.8248 7.36902 52.4439 10.5465 53.2534 13.9268C53.6582 15.6845 53.8606 17.3747 53.8606 19.0648C53.8606 19.6732 53.8606 20.2141 53.7931 20.7549L53.7257 22.6479V26.5014C53.7257 29.4761 53.6582 31.8423 53.4558 33.6C53.186 35.9662 52.6463 37.9944 51.8367 39.8197C50.8923 41.7803 49.543 43.538 47.789 45.093C46.9794 45.769 45.9 46.5127 44.5508 47.1887H39.4911C38.2767 47.1887 37.6696 44.0789 37.6696 37.9944ZM45.1579 42.862C45.9675 42.3887 46.6421 41.7127 47.1818 40.8338C47.6541 40.0901 48.0588 39.1437 48.4636 37.9944C48.8684 36.8451 49.1382 35.7634 49.3406 34.6817C49.7454 32.5859 50.0152 30.4225 50.0827 28.2592C50.1502 27.7183 50.1502 26.9071 50.1502 25.8254C50.1502 11.6958 47.4517 4.32676 41.9872 3.71831C41.6499 5.81409 41.515 8.2479 41.515 11.0197C41.515 13.9944 41.7173 19.1324 42.0547 26.4338C42.392 32.924 42.5269 38.1296 42.5269 41.9155V43.6056C43.4714 43.6056 44.3484 43.3352 45.1579 42.862Z" fill="#76C741"/>
<path d="M63.0356 47.0535C62.5634 46.6479 62.2935 46.1071 62.2261 45.4986V43.6733V42.2535C62.1586 41.8479 62.1586 41.3747 62.1586 40.7662C62.1586 39.7521 62.0911 38.2648 61.9562 36.3043L61.8213 31.8423C61.8213 29.5437 61.8888 26.1634 62.0237 21.6338C62.2261 17.5775 62.2935 14.1296 62.2935 11.4254C62.2935 10.7493 62.2261 9.80284 62.0911 8.45072C61.9562 7.09861 61.8888 6.08453 61.8888 5.47608C61.8888 2.1634 62.9007 0.473267 64.8571 0.473267C66.4087 0.473267 68.1628 0.811287 70.1866 1.35213C72.2105 1.96058 73.2225 2.70425 73.2225 3.51552C73.2225 3.98876 73.0201 4.39439 72.6153 4.80002C72.2105 5.20566 71.7383 5.54368 71.1986 5.7465C69.2422 5.07044 67.4881 4.59721 65.869 4.32679C65.9365 5.00284 65.9365 6.01692 65.9365 7.36903C65.9365 9.26199 65.9365 10.9521 65.869 12.4395C65.7341 14.6704 65.6667 16.3606 65.6667 17.5099L65.869 18.6592L67.0159 18.5916C67.4207 18.524 67.8255 18.524 68.4326 18.524C70.6589 18.524 71.8058 19.2 71.8058 20.4845C71.8058 21.0254 71.6034 21.431 71.1986 21.769C70.7938 22.1071 70.2541 22.3099 69.5795 22.3099C68.7699 22.3099 68.0953 22.2423 67.6231 22.1747H65.869C65.9365 23.3916 66.004 25.1493 66.004 27.5155C66.004 29.8817 66.004 31.9775 65.9365 33.8028C65.8016 36.6423 65.7341 38.8057 65.7341 40.1578C65.7341 42.7944 65.8016 44.0789 65.869 44.0789L68.1628 44.0113C68.9723 43.9437 69.9168 43.9437 71.0637 43.9437C72.8177 43.9437 73.6947 44.4845 73.6947 45.6338C73.6947 46.3099 73.4249 46.7831 72.8177 47.1212C72.2105 47.4592 71.5359 47.662 70.6589 47.662H64.7222C64.0476 47.662 63.5079 47.4592 63.0356 47.0535Z" fill="#76C741"/>
<path d="M86.8498 46.5803C85.7704 46.1071 84.8934 45.431 84.1513 44.6198C83.5441 43.9437 83.0044 42.9972 82.4647 41.7127C81.925 40.4282 81.5877 39.2113 81.3178 38.062C81.1155 37.1832 80.9131 35.8986 80.7781 34.2085C80.6432 32.5184 80.5758 31.0986 80.5083 29.8817V25.8254V23.0536C80.5083 20.3493 80.5758 18.1184 80.6432 16.3606C80.7107 14.2648 81.048 12.0339 81.5202 9.66766C81.925 7.57189 82.6671 5.74653 83.679 4.12399C84.691 2.56906 86.0402 1.41977 87.7943 0.811321C88.6038 0.473293 89.6157 0.338074 90.7626 0.338074C92.7865 0.338074 93.7984 0.946529 93.7984 2.09582C93.7984 2.63667 93.596 3.10991 93.1238 3.44794C92.6516 3.78597 92.1793 3.98878 91.5722 3.98878C91.3023 3.98878 91.0325 3.98878 90.8301 3.92117C90.6277 3.85357 90.4253 3.85358 90.1554 3.85358C89.3459 3.85358 88.6713 4.2592 88.0641 5.13808C87.4569 5.94935 86.9172 7.16626 86.5125 8.65358C85.7704 11.5606 85.2307 14.7381 84.9608 18.1184C84.7584 21.2958 84.691 23.662 84.691 25.217C84.691 26.8395 84.7584 29.0029 84.8934 31.7071C85.0958 34.2761 85.5005 36.5071 86.1077 38.4677C86.445 39.6169 86.8498 40.4958 87.2546 41.1719C87.7268 41.8479 88.2665 42.4564 88.9411 42.862C89.7507 43.4029 90.5602 43.6057 91.3698 43.6057C93.596 43.6057 94.7429 39.8874 94.7429 32.3831V29.1381C94.4056 29.0029 93.8659 28.9353 93.1238 28.9353H92.5166H91.7745C90.1554 28.9353 89.3459 28.3944 89.3459 27.3127C89.3459 26.6367 89.5483 26.1634 90.0205 25.8254C90.4927 25.4874 91.0324 25.2845 91.7071 25.2845V25.3522H92.719C96.9017 25.3522 98.993 26.0958 98.993 27.5155C98.993 27.9212 98.8581 28.8 98.6557 30.0169C98.3859 31.1662 98.251 31.9775 98.251 32.5184C98.251 33.3296 98.3184 34.5465 98.4533 36.2367L98.5883 39.955C98.5883 42.186 97.7787 43.9437 96.2271 45.2282C94.6754 46.5127 92.7865 47.1888 90.4928 47.1888C89.076 47.324 87.9292 47.0536 86.8498 46.5803Z" fill="#76C741"/>
<path d="M114.982 44.5521C113.97 42.1183 113.295 39.6169 112.823 37.0479L112.351 34.6817C111.001 27.9887 110.124 24.2028 109.787 23.2563H108.978C108.978 24.6084 108.978 25.8253 108.91 26.9746V30.8282C108.91 37.1155 109.382 41.9831 110.259 45.4986L109.517 47.3916H107.561L106.684 46.3099L106.751 41.6451C106.751 37.4535 106.549 31.031 106.144 22.5127C105.739 13.3859 105.604 7.03099 105.604 3.38028C105.604 1.1493 106.347 0 107.898 0C110.394 0 112.486 0.676063 114.105 1.96057C115.724 3.24508 116.533 5.07042 116.533 7.43662V12.3718C116.533 13.0479 116.399 13.8592 116.196 14.8056C115.994 15.6845 115.724 16.4282 115.454 17.0366L114.105 19.538L112.958 21.6338L113.295 23.3239L114.307 28.3268C114.982 31.9099 115.589 34.8169 116.196 37.1155C116.803 39.3465 117.545 41.3746 118.422 43.2L118.827 44.0113C119.299 44.9577 119.502 45.7014 119.502 46.2422C119.502 46.7155 119.367 47.1211 119.097 47.4592C118.827 47.7972 118.422 48 117.95 48C116.736 47.9324 115.791 46.7831 114.982 44.5521ZM111.811 15.5493C112.553 13.2507 112.89 11.0873 112.89 9.12676C112.89 7.63944 112.688 6.21972 112.351 4.93521C112.148 4.19155 111.744 3.5831 111.204 3.24507C110.664 2.83944 109.99 2.63663 109.18 2.63663L109.045 2.97465L108.91 3.5831L109.045 11.831C109.113 14.2648 109.18 16.9014 109.18 19.7409C110.192 19.3352 111.069 17.9155 111.811 15.5493Z" fill="#76C741"/>
<path d="M127.732 47.0535C127.26 46.6479 126.99 46.1071 126.923 45.4986V43.6733V42.2535C126.855 41.8479 126.855 41.3747 126.855 40.7662C126.855 39.7521 126.788 38.2648 126.653 36.3043L126.518 31.8423C126.518 29.5437 126.586 26.1634 126.72 21.6338C126.923 17.5775 126.99 14.1296 126.99 11.4254C126.99 10.7493 126.923 9.80284 126.788 8.45072C126.653 7.09861 126.586 6.08453 126.586 5.47608C126.586 2.1634 127.597 0.473267 129.554 0.473267C131.106 0.473267 132.86 0.811287 134.883 1.35213C136.907 1.96058 137.919 2.70425 137.919 3.51552C137.919 3.98876 137.717 4.39439 137.312 4.80002C136.907 5.20566 136.435 5.54368 135.895 5.7465C133.939 5.07044 132.185 4.59721 130.566 4.32679C130.633 5.00284 130.633 6.01692 130.633 7.36903C130.633 9.26199 130.633 10.9521 130.566 12.4395C130.431 14.6704 130.363 16.3606 130.363 17.5099L130.566 18.6592L131.713 18.5916C132.117 18.524 132.522 18.524 133.129 18.524C135.356 18.524 136.503 19.2 136.503 20.4845C136.503 21.0254 136.3 21.431 135.895 21.769C135.491 22.1071 134.951 22.3099 134.276 22.3099C133.467 22.3099 132.792 22.2423 132.32 22.1747H130.566C130.633 23.3916 130.701 25.1493 130.701 27.5155C130.701 29.8817 130.701 31.9775 130.633 33.8028C130.498 36.6423 130.431 38.8057 130.431 40.1578C130.431 42.7944 130.498 44.0789 130.566 44.0789L132.86 44.0113C133.669 43.9437 134.614 43.9437 135.76 43.9437C137.514 43.9437 138.391 44.4845 138.391 45.6338C138.391 46.3099 138.122 46.7831 137.514 47.1212C136.907 47.4592 136.233 47.662 135.356 47.662H129.419C128.744 47.662 128.205 47.4592 127.732 47.0535Z" fill="#76C741"/>
<path d="M147.566 47.0535C147.094 46.6479 146.824 46.1071 146.757 45.4986V43.6733V42.2535C146.689 41.8479 146.689 41.3747 146.689 40.7662C146.689 39.7521 146.622 38.2648 146.487 36.3043L146.352 31.8423C146.352 29.5437 146.42 26.1634 146.554 21.6338C146.757 17.5775 146.824 14.1296 146.824 11.4254C146.824 10.7493 146.757 9.80284 146.622 8.45072C146.487 7.09861 146.42 6.08453 146.42 5.47608C146.42 2.1634 147.431 0.473267 149.388 0.473267C150.94 0.473267 152.694 0.811287 154.717 1.35213C156.741 1.96058 157.753 2.70425 157.753 3.51552C157.753 3.98876 157.551 4.39439 157.146 4.80002C156.741 5.20566 156.269 5.54368 155.729 5.7465C153.773 5.07044 152.019 4.59721 150.4 4.32679C150.467 5.00284 150.467 6.01692 150.467 7.36903C150.467 9.26199 150.467 10.9521 150.4 12.4395C150.265 14.6704 150.197 16.3606 150.197 17.5099L150.4 18.6592L151.547 18.5916C151.951 18.524 152.356 18.524 152.963 18.524C155.19 18.524 156.337 19.2 156.337 20.4845C156.337 21.0254 156.134 21.431 155.729 21.769C155.325 22.1071 154.785 22.3099 154.11 22.3099C153.301 22.3099 152.626 22.2423 152.154 22.1747H150.4C150.467 23.3916 150.535 25.1493 150.535 27.5155C150.535 29.8817 150.535 31.9775 150.467 33.8028C150.332 36.6423 150.265 38.8057 150.265 40.1578C150.265 42.7944 150.332 44.0789 150.4 44.0789L152.694 44.0113C153.503 43.9437 154.448 43.9437 155.594 43.9437C157.348 43.9437 158.225 44.4845 158.225 45.6338C158.225 46.3099 157.956 46.7831 157.348 47.1212C156.741 47.4592 156.067 47.662 155.19 47.662H149.253C148.646 47.662 148.106 47.4592 147.566 47.0535Z" fill="#76C741"/>
<path d="M183.726 46.5127C183.456 46.2423 183.254 45.7014 183.119 44.9578L182.714 43.6057V43.4705V43.2676C182.714 41.7127 181.095 36.4395 177.924 27.5155C174.753 18.524 172.19 11.8986 170.436 7.63947V42.9296L170.705 43.4028C170.773 43.4704 170.84 43.6733 170.975 43.8761C171.11 44.0789 171.178 44.3493 171.178 44.5521C171.178 45.1606 170.975 45.7014 170.571 46.1071C170.166 46.5127 169.626 46.7155 169.019 46.7155C167.535 46.7155 166.793 45.2958 166.793 42.4564L166.725 30.4902C166.658 26.9071 166.658 22.8507 166.658 18.4564C166.658 16.969 166.725 14.8057 166.86 11.9662C166.995 8.99158 167.062 6.82819 167.062 5.47608C167.062 3.3127 167.872 1.55495 169.559 0.270447V0.676074C169.828 0.608469 170.031 0.540865 170.098 0.540865C171.178 0.540865 172.527 2.43383 174.146 6.15213C175.428 9.12678 176.642 12.3042 177.654 15.6169C178.734 18.9296 180.083 23.662 181.837 29.7465L182.511 32.2479C183.591 36.0338 184.4 38.7381 184.94 40.3606C185.885 30.2873 186.357 18.4564 186.357 4.73241V3.85355C186.289 3.58312 186.289 3.24509 186.289 2.97467C186.289 1.55495 186.829 0.878893 187.976 0.878893C188.651 0.878893 189.123 1.14932 189.46 1.62256C189.797 2.1634 190 2.77185 190 3.58312V8.85636C189.932 16.0226 189.595 23.8648 189.19 32.2479C188.718 40.631 188.178 45.431 187.504 46.5127C186.154 46.9183 185.345 47.0535 185.008 47.0535C184.4 46.9183 183.996 46.7831 183.726 46.5127Z" fill="#76C741"/>
<path d="M39.0188 0.473233C33.4869 0.67605 28.0899 1.89295 22.6928 2.90703C20.4666 3.38027 21.0737 5.47605 23.2326 5.00281C28.3597 3.98872 33.3519 2.90703 38.614 2.70421C40.5704 2.70421 41.5149 0.338022 39.0188 0.473233Z" fill="#76C741"/>
<path d="M23.772 3.38031C14.1923 1.08172 3.73563 5.5437 0.0251849 14.9409C-0.177203 15.4141 3.26339 15.1437 3.6007 14.2648C6.43413 7.16623 12.9105 2.83947 20.8037 4.73243C21.6132 4.86764 24.7165 3.58313 23.772 3.38031Z" fill="#76C741"/>
<path d="M1.10475 15.9549C10.4146 16.6986 17.4982 11.0197 24.042 5.07039C25.6611 3.58306 22.1531 3.24504 21.0737 4.19152C15.8116 8.99152 10.0098 14.1295 2.454 13.5887C0.767439 13.4535 -1.3239 15.7521 1.10475 15.9549Z" fill="#76C741"/>
<path d="M31.8001 1.9606C26.3356 3.78595 24.7165 9.12679 24.4467 14.4676C24.3792 15.6845 26.8079 15.3465 26.8753 14.2648C27.0777 10.3437 27.8198 5.07045 32.2049 3.58313C33.6891 3.04229 33.2843 1.41975 31.8001 1.9606Z" fill="#76C741"/>
<path d="M26.471 14.9409C31.3283 12.3718 32.745 8.2479 33.622 3.04226C33.6895 2.50142 31.3283 2.90706 31.2608 3.4479C30.5188 7.97748 29.5068 12.3042 25.1218 14.6028C23.6376 15.3465 25.8638 15.2789 26.471 14.9409Z" fill="#76C741"/>
</svg>
