<svg width="25" height="26" viewBox="0 0 25 26" fill="none" xmlns="http://www.w3.org/2000/svg">
<path d="M24.0551 24.0602L24.0549 24.06L17.5201 17.2318C19.1741 15.4804 20.1913 13.1152 20.1913 10.5155C20.1913 5.13144 15.8322 0.75 10.4706 0.75C5.10908 0.75 0.75 5.13144 0.75 10.5155C0.75 15.8996 5.10908 20.2811 10.4706 20.2811C12.7403 20.2811 14.8301 19.4946 16.4854 18.181L23.0429 25.0332C23.043 25.0333 23.043 25.0334 23.0431 25.0334C23.1809 25.1782 23.3655 25.25 23.5492 25.25C23.7246 25.25 23.8996 25.1842 24.0351 25.0536L24.0355 25.0533C24.3139 24.7841 24.3222 24.3398 24.0551 24.0602ZM10.4706 18.8748C5.88488 18.8748 2.15197 15.1259 2.15197 10.5155C2.15197 5.90515 5.88488 2.15624 10.4706 2.15624C15.0564 2.15624 18.7893 5.90515 18.7893 10.5155C18.7893 15.1259 15.056 18.8748 10.4706 18.8748Z" fill="#76C741" stroke="#76C741" stroke-width="0.5"/>
</svg>
