<svg width="120" height="108" viewBox="0 0 120 108" fill="none" xmlns="http://www.w3.org/2000/svg">
<path d="M114.727 45.2091H112.97V39.9347V21.1848C112.97 15.046 107.976 10.0518 101.837 10.0518H53.5609L20.9915 0.746144C20.9821 0.743566 20.9725 0.74216 20.9632 0.739581C20.9536 0.737003 20.9444 0.733254 20.9348 0.73091C20.9151 0.725988 20.8957 0.723644 20.8762 0.719426C20.846 0.713097 20.8157 0.706535 20.7855 0.701613C20.7581 0.69716 20.7311 0.694347 20.7037 0.691066C20.6718 0.687316 20.6402 0.684035 20.6086 0.68216C20.5828 0.680754 20.5572 0.680519 20.5314 0.68005C20.4986 0.679582 20.4661 0.679347 20.4335 0.680754C20.4093 0.681691 20.3852 0.684035 20.3613 0.68591C20.3278 0.688722 20.2943 0.691769 20.2612 0.696691C20.2387 0.699972 20.2164 0.704191 20.1942 0.708176C20.16 0.714269 20.1262 0.720831 20.0927 0.729035C20.0718 0.734191 20.0514 0.74005 20.0308 0.74591C19.9966 0.755753 19.9629 0.765832 19.9291 0.77755C19.9101 0.784347 19.8914 0.791613 19.8724 0.799113C19.8384 0.812238 19.8046 0.826066 19.7716 0.8413C19.754 0.849503 19.7369 0.85841 19.7196 0.867081C19.6865 0.883722 19.6539 0.900597 19.6221 0.919581C19.6054 0.929191 19.5895 0.939503 19.5731 0.949816C19.5417 0.969503 19.5107 0.98966 19.4807 1.01146C19.465 1.02271 19.4498 1.03489 19.4343 1.04685C19.4055 1.06911 19.3769 1.09185 19.3495 1.11599C19.334 1.12958 19.3193 1.14388 19.3043 1.15794C19.2785 1.18232 19.2529 1.20669 19.2286 1.23247C19.2133 1.24864 19.199 1.26552 19.1843 1.28239C19.162 1.30794 19.14 1.33372 19.1191 1.36067C19.1041 1.38013 19.09 1.40005 19.0757 1.41997C19.0572 1.44599 19.0389 1.47224 19.0221 1.49919C19.0075 1.52216 18.9942 1.54606 18.9808 1.56974C18.9661 1.59575 18.9513 1.622 18.9379 1.64895C18.9248 1.6752 18.9131 1.70216 18.9011 1.72911C18.8894 1.7556 18.8779 1.78208 18.8676 1.80927C18.8568 1.83786 18.8475 1.86716 18.8379 1.89669C18.8318 1.91567 18.8243 1.93349 18.8186 1.9527C18.8158 1.96231 18.8147 1.97169 18.8121 1.98106C18.8095 1.99067 18.8057 1.99981 18.8034 2.00942L16.7934 10.0513H11.134C5.00765 10.0513 0.0220312 15.0254 0.001875 21.1473C0.00164062 21.1599 0 21.1719 0 21.1843V82.1217C0 83.092 0.789842 83.8795 1.75781 83.8795C2.72812 83.8795 3.51562 83.092 3.51562 82.1217V29.292C5.50874 31.1661 8.18858 32.3178 11.134 32.3178H101.837C101.839 32.3178 101.841 32.3176 101.843 32.3176C106.04 32.3209 109.454 35.7366 109.454 39.935V52.2406H90.1156C90.1144 52.2406 90.1135 52.2408 90.1123 52.2408C90.0615 52.2408 90.0108 52.2439 89.9605 52.2483C89.9044 52.2532 89.8491 52.2612 89.7948 52.2713C89.7865 52.2727 89.7786 52.2734 89.7704 52.275C89.7244 52.2842 89.6794 52.2964 89.6347 52.309C89.6248 52.3118 89.6148 52.3137 89.6051 52.3167C89.5653 52.3289 89.5266 52.3435 89.488 52.3582C89.4732 52.3639 89.4582 52.3685 89.4434 52.3746C89.4111 52.388 89.3799 52.4037 89.3487 52.4189C89.3281 52.4288 89.3073 52.4379 89.2871 52.4485C89.2627 52.4614 89.2398 52.4761 89.2163 52.4902C89.1903 52.5057 89.1638 52.5207 89.1385 52.5375C89.1214 52.5488 89.1057 52.5617 89.0893 52.5736C89.0593 52.5952 89.029 52.6165 89.0005 52.6402C88.988 52.6505 88.9765 52.662 88.9646 52.6725C88.9339 52.6992 88.9032 52.7257 88.8741 52.7548C88.857 52.7719 88.8416 52.7907 88.8254 52.8085C88.8026 52.8331 88.7792 52.8572 88.7576 52.8835C88.7213 52.9278 88.6873 52.9737 88.6555 53.0213C88.6548 53.022 88.6541 53.0229 88.6536 53.0239L79.2791 67.0866C79.2137 67.1845 79.1584 67.2884 79.1145 67.3964C79.0979 67.4367 79.0845 67.4777 79.0712 67.5185C79.0672 67.5309 79.062 67.5429 79.0583 67.5553C79.0452 67.5987 79.0351 67.6425 79.0255 67.6861C79.0229 67.6976 79.0196 67.7088 79.0173 67.7203C79.0095 67.7597 79.0044 67.7993 78.9995 67.8389C78.9974 67.8558 78.9941 67.8727 78.9924 67.8898C78.9891 67.9223 78.9884 67.9547 78.9873 67.9873C78.9861 68.0121 78.984 68.0369 78.984 68.062C78.984 68.0862 78.9861 68.1103 78.987 68.1345C78.9882 68.1677 78.9891 68.2013 78.9924 68.2345C78.9941 68.2507 78.9971 68.2669 78.9992 68.2831C79.0044 68.3234 79.0095 68.3637 79.0175 68.4037C79.0196 68.4148 79.0229 68.4255 79.0255 68.4366C79.0351 68.4806 79.0454 68.5247 79.0585 68.5685C79.0623 68.5809 79.0674 68.5929 79.0714 68.6055C79.0848 68.6463 79.0981 68.6873 79.1148 68.7277C79.1588 68.8355 79.2141 68.9395 79.2798 69.0377L88.654 83.0983C88.6545 83.099 88.655 83.0995 88.6555 83.1002C88.6932 83.1562 88.7344 83.2097 88.778 83.261C88.7923 83.2779 88.8076 83.2936 88.8223 83.3095C88.8521 83.3421 88.883 83.3735 88.9151 83.4037C88.9341 83.4215 88.9529 83.4389 88.9721 83.4555C89.0063 83.4848 89.0417 83.5122 89.078 83.539C89.0944 83.5509 89.1101 83.564 89.1268 83.5753C89.1795 83.6111 89.2341 83.6442 89.2906 83.6742C89.3049 83.6817 89.3197 83.688 89.334 83.6951C89.379 83.7176 89.4249 83.7384 89.472 83.7569C89.4903 83.7642 89.5086 83.7708 89.5271 83.7773C89.5719 83.7933 89.6173 83.8073 89.6637 83.8197C89.6827 83.8247 89.7015 83.8298 89.7207 83.8345C89.7683 83.8455 89.8166 83.854 89.8655 83.861C89.8833 83.8636 89.9009 83.8671 89.9187 83.8692C89.9792 83.876 90.0406 83.8797 90.103 83.8802C90.1079 83.8802 90.1128 83.8811 90.118 83.8811C90.1189 83.8811 90.1201 83.8809 90.1212 83.8809H109.455V96.1874C109.455 100.388 106.038 103.805 101.838 103.805H11.1349C6.93491 103.805 3.51773 100.388 3.51773 96.1874C3.51773 96.1783 3.51656 96.1694 3.51632 96.1603V89.1539C3.51632 88.1859 2.72882 87.3961 1.75851 87.3961C0.790545 87.3961 0.000703124 88.1859 0.000703124 89.1539V96.1874C0.000703124 96.2057 0.00281249 96.2235 0.00351562 96.2416C0.0328124 102.355 5.01444 107.321 11.1349 107.321H101.838C107.976 107.321 112.97 102.327 112.971 96.1893C112.971 96.1891 112.971 96.1889 112.971 96.1884V83.8809H114.728C117.635 83.8809 120 81.5156 120 78.6084V50.4816C119.999 47.5744 117.634 45.2091 114.727 45.2091ZM21.7734 4.62575L52.7903 13.4882C52.7917 13.4886 52.7933 13.4889 52.7947 13.4893L73.5828 19.4288H18.0736L21.7734 4.62575ZM109.454 31.8268C107.461 29.9532 104.782 28.8017 101.837 28.8017C101.834 28.8017 101.831 28.8022 101.828 28.8022H11.134C6.93374 28.8022 3.51656 25.385 3.51656 21.1848C3.51656 16.9846 6.93374 13.5674 11.134 13.5674H15.9147L14.4499 19.4288H11.1344C10.1637 19.4288 9.37662 20.2159 9.37662 21.1867C9.37662 22.1574 10.1637 22.9445 11.1344 22.9445H15.8163C15.8186 22.9445 15.8212 22.9449 15.8238 22.9449C15.8257 22.9449 15.8275 22.9445 15.8292 22.9445H86.1277C86.1301 22.9445 86.1322 22.9449 86.1343 22.9449C86.1362 22.9449 86.138 22.9445 86.1399 22.9445H99.4913C100.462 22.9445 101.249 22.1574 101.249 21.1867C101.249 20.2159 100.462 19.4288 99.4913 19.4288H86.3797L65.8651 13.5674H101.837C106.037 13.5674 109.454 16.9846 109.454 21.1848V31.8268ZM116.484 78.6075C116.484 79.5761 115.695 80.3644 114.727 80.3644H91.0564L82.8535 68.0611L91.0564 55.756H114.727C114.751 55.756 114.775 55.7532 114.8 55.7522C115.389 55.744 115.956 55.639 116.484 55.452V78.6075ZM114.727 52.2385C114.715 52.2385 114.703 52.2401 114.69 52.2403H112.97V48.7247H114.727C115.695 48.7247 116.484 49.5129 116.484 50.4816C116.484 51.4503 115.695 52.2385 114.727 52.2385Z" fill="#76C741"/>
</svg>
